<?xml version="1.0" standalone="no"?>
<!DOCTYPE svg PUBLIC "-//W3C//DTD SVG 20010904//EN"
 "http://www.w3.org/TR/2001/REC-SVG-20010904/DTD/svg10.dtd">
<svg version="1.0" xmlns="http://www.w3.org/2000/svg"
 width="5785.000000pt" height="1000.000000pt" viewBox="0 0 5785.000000 1000.000000"
 preserveAspectRatio="xMidYMid meet">

<g transform="translate(0.000000,1000.000000) scale(0.100000,-0.100000)"
fill="#000000" stroke="none">
<path d="M4860 9997 c-4 -4 -85 -11 -180 -17 -251 -15 -479 -43 -650 -80 -25
-5 -67 -14 -95 -20 -67 -13 -144 -32 -246 -58 -20 -5 -42 -12 -48 -16 -14 -9
-15 -46 -1 -46 6 0 10 -16 10 -35 0 -19 5 -35 10 -35 6 0 10 -13 10 -30 0 -16
5 -30 10 -30 6 0 10 -13 10 -30 0 -16 5 -30 10 -30 6 0 10 -13 10 -30 0 -16 5
-30 10 -30 6 0 10 -16 10 -35 0 -19 5 -35 10 -35 6 0 10 -13 10 -30 0 -16 5
-30 10 -30 6 0 10 -11 10 -25 0 -24 63 -234 81 -267 5 -10 9 -27 9 -37 0 -11
5 -23 10 -26 6 -3 10 -19 10 -36 0 -16 5 -29 10 -29 6 0 10 -13 10 -30 0 -16
5 -30 10 -30 6 0 10 -13 10 -29 0 -17 5 -33 10 -36 6 -3 10 -19 10 -36 0 -16
5 -29 10 -29 6 0 10 -13 10 -30 0 -16 5 -30 10 -30 6 0 10 -13 10 -30 0 -16 5
-30 10 -30 6 0 10 -13 10 -30 0 -16 5 -30 10 -30 6 0 10 -13 10 -30 0 -16 5
-30 10 -30 6 0 10 -13 10 -30 0 -16 5 -30 10 -30 6 0 10 -13 10 -30 0 -16 5
-30 10 -30 6 0 10 -11 10 -25 0 -14 5 -25 10 -25 6 0 10 -18 10 -40 0 -22 5
-40 10 -40 6 0 10 -13 10 -30 0 -16 5 -30 10 -30 6 0 10 -13 10 -30 0 -16 5
-30 10 -30 6 0 10 -13 10 -30 0 -16 4 -30 9 -30 4 0 11 -20 14 -45 4 -24 11
-53 16 -62 17 -31 51 -138 51 -161 0 -12 5 -22 10 -22 6 0 10 -13 10 -29 0
-17 5 -33 10 -36 6 -3 10 -17 10 -30 0 -13 5 -27 10 -30 6 -3 10 -17 10 -30 0
-13 5 -27 10 -30 6 -3 10 -19 10 -36 0 -16 5 -29 10 -29 6 0 10 -13 10 -30 0
-16 5 -30 10 -30 6 0 10 -13 10 -30 0 -16 5 -30 10 -30 6 0 10 -13 10 -30 0
-16 5 -30 10 -30 6 0 10 -13 10 -30 0 -16 5 -30 10 -30 6 0 10 -13 10 -30 0
-16 5 -30 10 -30 6 0 10 -8 10 -18 0 -22 22 -72 33 -72 4 0 7 11 7 25 0 14 5
25 10 25 6 0 10 11 10 25 0 14 5 25 10 25 6 0 10 11 10 25 0 14 5 25 10 25 6
0 10 9 10 19 0 11 5 23 10 26 6 3 10 15 10 26 0 10 5 19 10 19 6 0 10 11 10
25 0 14 5 25 10 25 6 0 10 9 10 20 0 11 5 20 10 20 6 0 10 9 10 20 0 11 3 20
8 20 4 0 18 23 31 50 14 28 29 50 33 50 4 0 8 5 8 11 0 10 86 149 99 159 4 3
22 25 41 50 63 81 234 244 310 296 84 56 172 104 194 104 8 0 16 3 18 8 4 10
131 52 157 52 11 0 21 5 21 10 0 6 23 10 50 10 28 0 50 5 50 10 0 6 32 10 75
10 43 0 75 4 75 10 0 6 48 10 124 10 73 0 127 -4 131 -10 3 -5 40 -10 81 -10
43 0 74 -4 74 -10 0 -5 18 -10 40 -10 22 0 40 -4 40 -10 0 -5 15 -10 34 -10
19 0 38 -4 41 -10 3 -5 15 -10 26 -10 10 0 19 -4 19 -10 0 -5 9 -10 20 -10 11
0 20 -4 20 -10 0 -5 7 -10 15 -10 25 0 129 -70 196 -132 22 -21 45 -38 50 -38
5 0 9 -4 9 -10 0 -9 17 -31 75 -93 11 -12 31 -42 44 -67 14 -25 28 -47 32 -50
10 -7 79 -155 79 -169 0 -6 4 -19 9 -29 5 -9 13 -28 19 -42 5 -14 15 -38 21
-53 6 -15 11 -39 11 -52 0 -14 5 -25 10 -25 6 0 10 -12 10 -26 0 -14 5 -34 10
-45 10 -17 7 -20 -20 -25 -16 -4 -30 -10 -30 -15 0 -5 -11 -9 -24 -9 -14 0
-28 -4 -31 -10 -3 -5 -15 -10 -26 -10 -10 0 -27 -4 -37 -9 -16 -8 -31 -15 -99
-43 -18 -7 -33 -16 -33 -20 0 -5 -9 -8 -19 -8 -11 0 -26 -6 -33 -14 -8 -7 -34
-24 -59 -36 -24 -13 -46 -26 -49 -29 -3 -3 -30 -26 -60 -51 -30 -25 -65 -56
-78 -70 -72 -80 -92 -105 -92 -112 0 -5 -9 -18 -20 -30 -11 -12 -20 -28 -20
-35 0 -7 -4 -13 -10 -13 -5 0 -10 -9 -10 -20 0 -11 -4 -20 -10 -20 -5 0 -10
-9 -10 -20 0 -11 -4 -20 -10 -20 -5 0 -10 -11 -10 -25 0 -14 -4 -25 -10 -25
-5 0 -10 -13 -10 -30 0 -16 -4 -30 -9 -30 -28 0 -28 -325 0 -355 5 -5 9 -24 9
-42 0 -18 5 -33 10 -33 6 0 10 -18 10 -40 0 -22 5 -40 10 -40 6 0 10 -9 10
-20 0 -11 5 -20 10 -20 6 0 10 -11 10 -25 0 -14 5 -25 10 -25 6 0 10 -9 10
-20 0 -11 5 -20 10 -20 6 0 10 -9 10 -20 0 -11 5 -20 10 -20 6 0 10 -7 10 -15
0 -8 5 -15 10 -15 6 0 10 -7 10 -15 0 -8 5 -15 10 -15 6 0 10 -6 10 -12 0 -7
11 -26 25 -42 14 -16 25 -33 25 -37 0 -4 6 -14 14 -21 7 -8 23 -32 35 -54 12
-21 34 -59 48 -84 51 -89 103 -193 103 -206 0 -8 5 -14 10 -14 6 0 10 -9 10
-20 0 -11 5 -20 10 -20 6 0 10 -9 10 -20 0 -11 5 -20 10 -20 6 0 10 -13 10
-30 0 -16 5 -30 10 -30 6 0 10 -11 10 -24 0 -14 5 -28 10 -31 6 -3 10 -17 10
-30 0 -13 5 -27 10 -30 6 -3 10 -17 10 -30 0 -13 5 -27 10 -30 6 -3 10 -19 10
-35 0 -16 5 -32 10 -35 6 -3 10 -21 10 -39 0 -17 4 -36 9 -41 5 -6 11 -28 14
-50 3 -22 11 -83 19 -135 26 -189 15 -610 -22 -800 -6 -30 -13 -76 -16 -103
-4 -26 -11 -50 -15 -53 -5 -3 -9 -21 -9 -40 0 -19 -4 -34 -10 -34 -5 0 -10 -9
-10 -20 0 -11 -4 -20 -10 -20 -5 0 -10 -13 -10 -30 0 -16 -4 -30 -10 -30 -5 0
-10 -9 -10 -19 0 -11 -4 -23 -10 -26 -6 -3 -10 -17 -10 -31 0 -13 -4 -24 -10
-24 -5 0 -10 -9 -10 -20 0 -11 -4 -20 -10 -20 -5 0 -10 -9 -10 -20 0 -11 -4
-20 -10 -20 -5 0 -10 -11 -10 -25 0 -14 -4 -25 -10 -25 -5 0 -10 -9 -10 -20 0
-11 -4 -20 -10 -20 -5 0 -10 -9 -10 -20 0 -11 -4 -20 -10 -20 -5 0 -10 -9 -10
-19 0 -11 -4 -21 -9 -23 -5 -1 -23 -32 -41 -68 -18 -36 -52 -96 -76 -133 -24
-37 -44 -72 -44 -77 0 -6 -4 -10 -8 -10 -5 0 -15 -12 -23 -27 -8 -16 -22 -35
-31 -44 -10 -9 -18 -21 -18 -28 0 -6 -4 -11 -10 -11 -5 0 -10 -5 -10 -11 0 -6
-13 -24 -30 -39 -16 -15 -30 -33 -30 -39 0 -6 -4 -11 -10 -11 -5 0 -10 -5 -10
-12 0 -15 -316 -328 -331 -328 -6 0 -24 -13 -39 -30 -15 -16 -32 -30 -37 -30
-4 0 -24 -14 -43 -30 -19 -16 -40 -30 -47 -30 -6 0 -13 -4 -15 -8 -5 -12 -86
-66 -154 -102 -32 -17 -77 -42 -99 -56 -22 -13 -48 -24 -57 -24 -10 0 -18 -4
-18 -10 0 -5 -9 -10 -20 -10 -11 0 -20 -4 -20 -10 0 -5 -9 -10 -20 -10 -11 0
-20 -4 -20 -10 0 -5 -9 -10 -20 -10 -11 0 -28 -4 -38 -9 -9 -5 -30 -14 -47
-21 -16 -7 -38 -16 -47 -21 -10 -5 -27 -9 -38 -9 -11 0 -20 -4 -20 -10 0 -5
-13 -10 -30 -10 -16 0 -30 -4 -30 -10 0 -5 -13 -10 -30 -10 -16 0 -30 -4 -30
-10 0 -5 -13 -10 -30 -10 -16 0 -30 -4 -30 -10 0 -5 -15 -10 -34 -10 -19 0
-38 -4 -41 -10 -3 -5 -19 -10 -35 -10 -16 0 -32 -5 -35 -10 -3 -6 -21 -10 -40
-10 -19 0 -37 -4 -40 -10 -3 -5 -16 -10 -27 -10 l-21 0 7 -927 c3 -511 9 -945
12 -965 6 -35 8 -37 53 -44 25 -5 143 -8 261 -8 427 0 769 42 1260 154 73 17
388 114 455 140 11 4 47 18 80 30 71 26 104 39 127 51 10 5 25 9 33 9 8 0 15
5 15 10 0 6 9 10 20 10 11 0 20 5 20 10 0 6 7 10 15 10 8 0 52 18 97 40 46 22
88 40 95 40 6 0 13 4 15 8 2 4 46 29 98 55 52 26 127 66 165 88 39 23 85 50
104 61 19 11 60 37 92 59 32 21 63 39 68 39 6 0 11 4 11 8 0 5 12 15 28 23 15
8 34 22 43 31 9 10 20 18 25 18 5 0 22 11 38 25 16 14 33 25 37 25 4 0 14 6
21 13 7 7 29 24 48 37 19 13 37 27 40 30 3 3 50 41 105 85 55 43 117 96 137
117 20 21 41 38 47 38 13 0 431 419 431 432 0 5 17 26 38 46 20 20 69 78 107
127 38 50 72 92 75 95 3 3 17 21 30 40 13 19 30 41 37 48 7 7 13 17 13 22 0 5
10 19 23 32 12 13 28 35 36 51 8 15 18 27 23 27 4 0 8 6 8 13 0 7 9 23 20 35
11 12 20 24 20 27 0 4 14 26 30 50 17 24 30 48 30 54 0 6 4 11 9 11 5 0 18 19
30 43 12 23 39 71 61 107 21 36 78 144 125 240 48 96 91 183 96 192 5 10 9 25
9 33 0 8 5 15 10 15 6 0 10 9 10 19 0 11 5 23 10 26 6 3 10 15 10 26 0 10 5
19 10 19 6 0 10 11 10 25 0 14 5 25 10 25 6 0 10 8 10 18 0 10 9 37 20 60 11
22 20 46 20 52 0 5 4 18 9 28 19 37 123 371 143 462 5 25 14 63 20 85 23 99
32 143 58 293 67 386 87 756 61 1147 -6 94 -14 208 -17 255 -3 47 -10 89 -15
95 -5 5 -9 37 -9 71 0 35 -4 66 -10 69 -5 3 -10 31 -10 61 0 30 -4 54 -9 54
-5 0 -11 24 -14 53 -6 58 -15 102 -57 265 -5 20 -13 55 -19 77 -24 102 -116
395 -143 455 -6 14 -15 35 -19 48 -5 12 -13 32 -18 45 -14 37 -33 81 -42 99
-5 10 -9 25 -9 33 0 8 -4 15 -10 15 -5 0 -10 9 -10 20 0 11 -4 20 -10 20 -5 0
-10 9 -10 20 0 11 -4 20 -10 20 -5 0 -10 11 -10 25 0 14 -4 25 -10 25 -5 0
-10 6 -10 13 0 12 -119 258 -130 267 -3 3 -19 31 -35 62 -17 32 -33 58 -36 58
-3 0 -16 23 -29 50 -13 28 -27 50 -32 50 -4 0 -8 5 -8 11 0 6 -14 30 -30 54
-16 24 -30 48 -30 54 0 6 -4 11 -10 11 -5 0 -10 7 -10 15 0 8 -4 15 -10 15 -5
0 -10 6 -10 13 0 7 -9 19 -20 27 -11 8 -20 19 -20 25 0 5 -11 23 -25 39 -14
16 -25 33 -25 37 0 4 -6 14 -13 21 -7 7 -24 29 -37 48 -13 19 -27 37 -30 40
-4 3 -34 41 -67 85 -34 44 -82 101 -107 128 -25 26 -46 51 -46 56 0 16 -439
451 -455 451 -3 0 -25 19 -49 43 -24 23 -78 69 -121 102 -43 33 -92 72 -109
87 -17 15 -34 28 -37 28 -3 0 -19 11 -35 25 -16 14 -34 25 -39 25 -6 0 -17 9
-25 20 -8 11 -19 20 -25 20 -6 0 -20 8 -31 18 -10 9 -31 23 -46 31 -16 8 -28
18 -28 23 0 4 -5 8 -10 8 -6 0 -43 21 -83 48 -104 68 -105 68 -182 108 -38 20
-82 45 -97 55 -14 11 -33 19 -42 19 -9 0 -16 3 -16 8 0 4 -25 18 -55 32 -30
14 -55 28 -55 33 0 4 -9 7 -20 7 -11 0 -20 5 -20 10 0 6 -6 10 -14 10 -8 0
-31 9 -53 20 -73 37 -127 60 -140 60 -7 0 -13 5 -13 10 0 6 -7 10 -15 10 -8 0
-23 4 -33 9 -32 16 -93 41 -152 61 -19 7 -44 15 -55 20 -66 24 -183 63 -255
84 -30 8 -80 23 -110 32 -82 24 -200 52 -260 60 -19 3 -44 9 -55 14 -11 5 -38
11 -60 14 -22 3 -68 10 -102 16 -225 37 -315 48 -473 60 -177 13 -514 24 -520
17z"/>
<path d="M35245 6823 c-321 -26 -565 -87 -778 -193 -490 -246 -780 -666 -874
-1270 -25 -161 -24 -581 1 -763 113 -823 555 -1299 1312 -1414 134 -20 525
-22 719 -4 243 23 590 94 815 168 l55 18 3 923 2 922 -710 0 -710 0 0 -310 0
-310 340 0 340 0 0 -374 c0 -348 -1 -375 -17 -380 -96 -27 -245 -41 -433 -41
-179 0 -216 3 -295 23 -132 33 -241 91 -331 175 -158 147 -243 312 -300 580
-36 168 -45 506 -19 672 24 155 57 264 120 390 137 277 359 457 661 536 79 21
112 24 289 24 272 0 428 -31 688 -136 117 -47 118 -47 128 -26 92 210 236 574
230 580 -14 14 -254 95 -375 127 -272 72 -606 104 -861 83z"/>
<path d="M27010 6764 c-12 -30 -1091 -3099 -1186 -3372 l-64 -182 407 2 406 3
107 350 c59 193 116 383 129 423 l22 72 652 0 652 0 129 -425 130 -425 403 0
c316 0 403 3 402 13 0 6 -282 811 -627 1787 l-627 1775 -463 3 -462 2 -10 -26z
m510 -654 c35 -128 120 -408 306 -1003 68 -218 124 -402 124 -407 0 -6 -168
-10 -466 -10 -381 0 -465 2 -461 13 32 85 401 1308 447 1486 6 23 13 41 15 40
1 -2 17 -56 35 -119z"/>
<path d="M46007 6783 c-3 -5 -284 -802 -625 -1773 -342 -971 -624 -1773 -627
-1783 -7 -16 15 -17 400 -15 l408 3 98 325 c55 179 113 369 129 423 l31 97
652 0 652 0 129 -425 129 -425 405 0 404 0 -6 23 c-3 12 -286 816 -629 1787
l-623 1765 -461 3 c-254 1 -464 -1 -466 -5z m502 -673 c34 -124 144 -483 320
-1050 61 -195 111 -358 111 -362 0 -4 -210 -8 -466 -8 l-465 0 7 23 c112 350
345 1125 441 1465 8 30 16 52 18 50 1 -2 17 -55 34 -118z"/>
<path d="M55031 5012 c-343 -977 -626 -1783 -629 -1789 -3 -10 81 -13 402 -13
l405 0 27 87 c15 49 73 239 129 423 l102 335 653 0 654 0 113 -370 c62 -203
120 -394 128 -422 l16 -53 404 0 c223 0 405 3 405 8 0 4 -283 808 -629 1787
l-629 1780 -463 2 -464 3 -624 -1778z m1264 638 c36 -118 118 -380 181 -581
63 -202 114 -370 114 -373 0 -3 -209 -6 -465 -6 -256 0 -465 2 -465 4 0 2 68
223 150 492 83 268 185 607 226 753 41 146 78 273 81 281 3 8 29 -68 58 -170
29 -102 83 -282 120 -400z"/>
<path d="M11750 4996 l0 -1786 708 0 c403 0 758 5 827 11 382 33 662 151 863
364 124 131 203 293 232 477 19 115 8 380 -19 483 -69 263 -247 436 -530 514
-41 11 -76 23 -78 25 -11 10 9 24 44 31 106 20 247 105 321 192 52 62 106 162
136 251 38 112 49 205 43 369 -9 247 -65 394 -206 533 -152 151 -409 247 -791
296 -101 13 -264 17 -837 21 l-713 5 0 -1786z m1450 1140 c213 -48 314 -147
327 -322 14 -184 -57 -324 -199 -389 -106 -48 -185 -57 -518 -59 l-305 -1 -3
385 c-1 212 0 391 3 398 8 22 592 11 695 -12z m27 -1390 c193 -40 308 -126
359 -266 41 -115 25 -311 -35 -415 -62 -109 -151 -170 -297 -207 -82 -20 -114
-22 -419 -22 l-330 -1 -3 455 c-1 250 0 461 3 469 8 20 619 9 722 -13z"/>
<path d="M15110 4995 l0 -1785 375 0 375 0 0 635 0 635 218 0 c441 0 678 42
917 162 323 163 514 445 566 836 16 122 6 382 -20 494 -84 365 -320 615 -686
727 -230 71 -372 81 -1132 81 l-613 0 0 -1785z m1354 1137 c230 -63 346 -226
346 -487 0 -276 -135 -445 -413 -516 -68 -18 -122 -22 -309 -26 l-228 -5 0
532 0 532 263 -4 c228 -4 272 -8 341 -26z"/>
<path d="M18250 4995 l0 -1785 375 0 375 0 0 685 0 685 206 -2 206 -3 423
-680 424 -680 415 -3 c229 -1 416 0 416 4 0 3 -234 353 -520 777 l-520 770 75
41 c320 175 515 418 570 711 21 107 15 368 -9 476 -96 424 -392 664 -926 753
-170 28 -375 36 -947 36 l-563 0 0 -1785z m1221 1150 c334 -44 479 -182 479
-455 0 -179 -71 -319 -201 -397 -119 -70 -344 -108 -614 -101 l-130 3 -3 483
-2 482 182 0 c101 0 231 -7 289 -15z"/>
<path d="M22850 4996 l0 -1786 708 0 c403 0 758 5 827 11 612 52 1001 347
1091 826 22 121 15 372 -15 492 -68 271 -264 454 -569 531 -24 6 -42 16 -40
21 2 6 43 23 91 39 48 17 113 46 143 65 200 128 314 375 314 680 0 473 -222
721 -751 839 -244 54 -326 59 -1091 63 l-708 5 0 -1786z m1450 1140 c157 -36
242 -92 292 -194 31 -63 33 -72 32 -172 0 -83 -5 -117 -23 -161 -46 -119 -147
-193 -306 -225 -62 -13 -148 -17 -385 -18 l-305 -1 -3 398 -2 399 312 -5 c245
-3 329 -8 388 -21z m-80 -1376 c319 -34 471 -160 487 -405 13 -207 -75 -380
-231 -454 -117 -56 -195 -65 -551 -66 l-320 0 -3 455 c-1 250 0 461 3 468 6
15 471 17 615 2z"/>
<path d="M29660 4995 l0 -1785 335 0 335 0 0 893 c0 839 -6 1133 -36 1685 -6
100 -4 122 7 122 8 -1 356 -596 789 -1350 l775 -1350 478 0 477 0 0 1785 0
1785 -335 0 -335 0 0 -942 c0 -676 4 -1034 15 -1263 19 -409 19 -483 3 -467
-7 7 -360 610 -783 1340 l-770 1327 -478 3 -477 2 0 -1785z"/>
<path d="M37330 5558 c0 -1328 0 -1317 56 -1513 54 -189 145 -344 289 -493
136 -141 281 -231 482 -298 429 -144 1055 -113 1418 68 342 172 557 452 651
848 17 70 18 167 21 1343 l4 1267 -376 0 -375 0 0 -1157 c0 -1252 0 -1258 -54
-1428 -75 -238 -250 -365 -539 -395 -117 -12 -270 -2 -372 25 -208 54 -351
188 -409 385 -45 149 -46 184 -46 1408 l0 1162 -375 0 -375 0 0 -1222z"/>
<path d="M41130 4995 l0 -1785 335 0 335 0 0 898 c0 740 -4 972 -20 1327 -24
511 -23 475 -7 475 6 -1 361 -608 787 -1350 l775 -1350 478 0 477 0 0 1785 0
1785 -335 0 -335 0 0 -947 c0 -680 4 -1039 15 -1268 8 -176 14 -354 14 -395
l0 -75 -20 25 c-10 14 -362 617 -782 1340 l-762 1315 -478 3 -477 2 0 -1785z"/>
<path d="M48650 4996 l0 -1786 375 0 375 0 0 685 0 685 206 -2 207 -3 424
-682 425 -683 418 0 419 0 -127 188 c-69 103 -305 452 -524 776 l-398 589 72
40 c131 71 212 130 313 232 196 196 275 393 275 679 -1 625 -332 953 -1055
1047 -56 7 -336 13 -747 16 l-658 5 0 -1786z m1197 1153 c113 -12 251 -50 311
-85 129 -76 192 -195 192 -367 0 -207 -81 -349 -245 -426 -120 -57 -316 -84
-565 -79 l-135 3 -3 483 -2 482 175 0 c97 0 219 -5 272 -11z"/>
<path d="M51600 6465 l0 -315 485 0 485 0 0 -1470 0 -1470 375 0 375 0 0 1470
0 1470 485 0 485 0 0 315 0 315 -1345 0 -1345 0 0 -315z"/>
<path d="M13 5243 c-4 -27 -8 -131 -8 -233 1 -289 31 -636 75 -870 6 -30 15
-77 20 -105 5 -27 14 -71 19 -97 25 -112 30 -135 39 -173 6 -22 17 -65 26 -95
9 -30 24 -80 33 -110 36 -125 106 -326 145 -420 6 -14 14 -34 18 -45 12 -31
41 -95 66 -149 13 -28 24 -56 24 -63 0 -7 5 -13 10 -13 6 0 10 -6 10 -13 0
-18 24 -67 33 -67 4 0 7 -9 7 -19 0 -11 3 -21 8 -23 4 -1 24 -37 45 -78 54
-108 128 -238 165 -292 18 -26 32 -51 32 -57 0 -6 5 -11 10 -11 6 0 10 -7 10
-15 0 -8 5 -15 10 -15 6 0 10 -7 10 -15 0 -8 5 -15 10 -15 6 0 10 -6 10 -12 0
-7 11 -26 25 -42 14 -16 25 -33 25 -37 0 -4 11 -19 25 -33 14 -14 25 -29 25
-33 0 -4 9 -19 20 -33 11 -14 58 -75 105 -136 47 -61 97 -124 112 -140 16 -16
41 -47 58 -69 49 -66 473 -485 490 -485 3 0 22 -17 44 -38 21 -20 66 -59 100
-85 69 -55 73 -50 42 42 -10 31 -22 72 -26 91 -4 19 -11 53 -16 75 -45 199
-63 536 -34 643 18 66 75 192 87 192 4 0 8 6 8 14 0 16 95 116 109 116 5 0 16
6 23 14 22 22 98 58 153 72 40 11 237 14 988 14 930 0 937 0 937 20 0 11 5 20
10 20 7 0 10 180 10 520 0 393 -3 520 -12 520 -14 0 -77 -19 -100 -31 -10 -5
-29 -9 -42 -9 -14 0 -28 -4 -31 -10 -3 -5 -21 -10 -40 -10 -19 0 -37 -4 -40
-10 -3 -5 -24 -10 -45 -10 -21 0 -42 -4 -45 -10 -3 -5 -31 -10 -61 -10 -30 0
-54 -4 -54 -10 0 -5 -22 -10 -50 -10 -27 0 -50 -4 -50 -10 0 -6 -28 -10 -63
-10 -35 0 -67 -4 -72 -9 -25 -25 -705 -25 -705 0 0 5 -38 9 -85 9 -50 0 -85 4
-85 10 0 6 -22 10 -50 10 -27 0 -50 5 -50 10 0 6 -20 10 -44 10 -25 0 -48 5
-51 10 -3 6 -21 10 -40 10 -19 0 -37 5 -40 10 -3 6 -18 10 -32 10 -29 0 -34 2
-198 54 -105 33 -170 57 -262 98 -24 10 -50 18 -58 18 -8 0 -15 5 -15 10 0 6
-7 10 -16 10 -18 0 -217 100 -222 112 -2 4 -12 8 -23 8 -10 0 -19 5 -19 10 0
6 -7 10 -15 10 -8 0 -15 5 -15 10 0 6 -7 10 -15 10 -9 0 -25 9 -37 20 -12 11
-28 20 -35 20 -7 0 -13 5 -13 10 0 6 -6 10 -13 10 -7 0 -23 9 -35 20 -12 11
-26 20 -32 20 -6 0 -17 6 -24 13 -8 6 -24 19 -36 27 -62 42 -175 129 -220 170
-42 38 -70 60 -75 60 -10 0 -323 317 -356 360 -19 25 -44 55 -56 68 -13 13
-23 27 -23 32 0 5 -11 20 -25 34 -14 14 -25 30 -25 36 0 5 -4 10 -10 10 -5 0
-10 5 -10 11 0 7 -8 19 -18 28 -9 9 -23 28 -31 44 -8 15 -18 27 -23 27 -4 0
-8 7 -8 15 0 8 -4 15 -10 15 -5 0 -10 6 -10 13 0 7 -9 22 -19 34 -11 11 -29
40 -41 64 -13 24 -26 46 -30 49 -12 8 -140 261 -140 276 0 8 -4 14 -10 14 -5
0 -10 9 -10 20 0 39 -19 19 -27 -27z"/>
</g>
</svg>
